<?xml version="1.0" encoding="UTF-8"?>
<svg xmlns="http://www.w3.org/2000/svg" version="1.1" width="13" height="13" viewBox="0 0 13 13">
  <!-- Generator: Adobe Illustrator 28.6.0, SVG Export Plug-In . SVG Version: 1.2.0 Build 709)  -->
  <g>
    <g id="Layer_1">
      <rect x="-1.1" y="5.7" width="15.2" height="1.4" rx=".7" ry=".7" transform="translate(5.6 -2.7) rotate(39.5)" display="none" fill="#77878a"/>
      <rect y="3.8" width="5.4" height="5.3" rx=".7" ry=".7" fill="#77878a"/>
      <g>
        <path d="M8.5,6.5c0-1.2-.6-2.2-1.5-2.9-.3-.2-.6-.1-.8.1,0,.1-.1.2-.1.3,0,.2,0,.4.2.5.6.4,1,1.2,1,1.9s-.4,1.5-1,1.9c-.3.2-.3.6-.1.8.2.3.6.3.8.1.9-.7,1.5-1.8,1.5-2.9h0Z" fill="#77878a"/>
        <path d="M10.8,6.5c0-1.6-.7-3.2-1.9-4.3-.2-.2-.6-.2-.8,0-.1.1-.2.3-.2.4s0,.3.2.4c1,.9,1.5,2.1,1.5,3.4s-.6,2.6-1.5,3.4c-.2.2-.3.6,0,.8.2.2.6.3.8,0,1.2-1.1,1.9-2.7,1.9-4.3h0Z" fill="#77878a"/>
        <path d="M10.6,12.2c1.6-1.5,2.4-3.6,2.4-5.7s-.9-4.2-2.4-5.7c-.2-.2-.6-.2-.8,0-.1.1-.2.3-.2.4s0,.3.2.4c1.3,1.3,2,3,2,4.9s-.7,3.6-2,4.9c-.2.2-.2.6,0,.8s.6.2.8,0h0s0,0,0,0Z" fill="#77878a"/>
      </g>
    </g>
  </g>
</svg>